<svg width="48" height="42" viewBox="0 0 48 42" fill="none" xmlns="http://www.w3.org/2000/svg">
<path d="M17.1429 7.71428H30.8571V4.28571H17.1429V7.71428ZM48 24.8571V37.7143C48 40.0714 46.0714 42 43.7143 42H4.28571C1.92857 42 0 40.0714 0 37.7143V24.8571H18V29.1429C18 30.0804 18.7768 30.8571 19.7143 30.8571H28.2857C29.2232 30.8571 30 30.0804 30 29.1429V24.8571H48ZM27.4286 24.8571V28.2857H20.5714V24.8571H27.4286ZM48 12V22.2857H0V12C0 9.64285 1.92857 7.71428 4.28571 7.71428H13.7143V3.42857C13.7143 2.00893 14.8661 0.85714 16.2857 0.85714H31.7143C33.1339 0.85714 34.2857 2.00893 34.2857 3.42857V7.71428H43.7143C46.0714 7.71428 48 9.64285 48 12Z" fill="black"/>
</svg>
