<svg width="55" height="56" viewBox="0 0 55 56" fill="none" xmlns="http://www.w3.org/2000/svg">
<path d="M41.8214 25.1786L26.75 40.25C25.8571 41.1429 24.4286 41.1429 23.5357 40.25L13.0357 29.75C12.1429 28.8571 12.1429 27.4286 13.0357 26.5357L16.6786 22.8929C17.5714 22 19 22 19.8929 22.8929L25.1429 28.1429L34.9643 18.3214C35.8571 17.4286 37.2857 17.4286 38.1786 18.3214L41.8214 21.9643C42.7143 22.8571 42.7143 24.2857 41.8214 25.1786ZM46.8571 28.1429C46.8571 17.4286 38.1429 8.71428 27.4286 8.71428C16.7143 8.71428 8 17.4286 8 28.1429C8 38.8571 16.7143 47.5714 27.4286 47.5714C38.1429 47.5714 46.8571 38.8571 46.8571 28.1429ZM54.8571 28.1429C54.8571 43.2857 42.5714 55.5714 27.4286 55.5714C12.2857 55.5714 0 43.2857 0 28.1429C0 13 12.2857 0.714283 27.4286 0.714283C42.5714 0.714283 54.8571 13 54.8571 28.1429Z" fill="white"/>
</svg>
