<svg width="50" height="38" viewBox="0 0 50 38" fill="none" xmlns="http://www.w3.org/2000/svg">
<path d="M15.5268 30.3304L14.1875 31.6696C13.8393 32.0179 13.3036 32.0179 12.9554 31.6696L0.473214 19.1875C0.125 18.8393 0.125 18.3036 0.473214 17.9554L12.9554 5.47321C13.3036 5.125 13.8393 5.125 14.1875 5.47321L15.5268 6.8125C15.875 7.16071 15.875 7.69643 15.5268 8.04464L5 18.5714L15.5268 29.0982C15.875 29.4464 15.875 29.9821 15.5268 30.3304ZM31.3571 1.75L21.3661 36.3304C21.2321 36.7857 20.75 37.0536 20.3214 36.9196L18.6607 36.4643C18.2054 36.3304 17.9375 35.8482 18.0714 35.3929L28.0625 0.812497C28.1964 0.357142 28.6786 0.0892849 29.1071 0.223212L30.7679 0.67857C31.2232 0.812497 31.4911 1.29464 31.3571 1.75ZM48.9554 19.1875L36.4732 31.6696C36.125 32.0179 35.5893 32.0179 35.2411 31.6696L33.9018 30.3304C33.5536 29.9821 33.5536 29.4464 33.9018 29.0982L44.4286 18.5714L33.9018 8.04464C33.5536 7.69643 33.5536 7.16071 33.9018 6.8125L35.2411 5.47321C35.5893 5.125 36.125 5.125 36.4732 5.47321L48.9554 17.9554C49.3036 18.3036 49.3036 18.8393 48.9554 19.1875Z" fill="black"/>
</svg>
