<svg width="45" height="49" viewBox="0 0 45 49" fill="none" xmlns="http://www.w3.org/2000/svg">
<path d="M27.5357 18.1071C27.5357 21.9375 24.4018 25.0446 20.5714 25.0446C16.7411 25.0446 13.6071 21.9375 13.6071 18.1071C13.6071 14.25 16.7411 11.1429 20.5714 11.1429C24.4018 11.1429 27.5357 14.25 27.5357 18.1071ZM26.25 24C31.3661 24 32.1696 30.0804 32.1696 34.0179C32.1696 36.2679 30.75 38.5714 28.2857 38.5714H12.8571C10.3929 38.5714 8.97321 36.2679 8.97321 34.0179C8.97321 30.2411 9.77679 24 14.7589 24H14.8929C16.6607 25.0446 18.4554 26.3304 20.5714 26.3304C22.6875 26.3304 24.4821 25.0446 26.25 24ZM44.5714 17.1429C44.5714 17.5982 44.1696 18 43.7143 18H41.1429V21.4286H43.7143C44.1696 21.4286 44.5714 21.8304 44.5714 22.2857V27.4286C44.5714 27.8839 44.1696 28.2857 43.7143 28.2857H41.1429V31.7143H43.7143C44.1696 31.7143 44.5714 32.1161 44.5714 32.5714V37.7143C44.5714 38.1696 44.1696 38.5714 43.7143 38.5714H41.1429V44.5714C41.1429 46.9286 39.2143 48.8571 36.8571 48.8571H4.28571C1.92857 48.8571 0 46.9286 0 44.5714V5.14285C0 2.78571 1.92857 0.85714 4.28571 0.85714H36.8571C39.2143 0.85714 41.1429 2.78571 41.1429 5.14285V11.1429H43.7143C44.1696 11.1429 44.5714 11.5446 44.5714 12V17.1429ZM37.7143 44.5714V5.14285C37.7143 4.6875 37.3125 4.28571 36.8571 4.28571H4.28571C3.83036 4.28571 3.42857 4.6875 3.42857 5.14285V44.5714C3.42857 45.0268 3.83036 45.4286 4.28571 45.4286H36.8571C37.3125 45.4286 37.7143 45.0268 37.7143 44.5714Z" fill="black"/>
</svg>
