<svg width="62" height="42" viewBox="0 0 62 42" fill="none" xmlns="http://www.w3.org/2000/svg">
<path d="M47.5179 19.25L48 27.7143C48.2143 31.4911 40.3125 34.5714 30.8571 34.5714C21.4018 34.5714 13.5 31.4911 13.7143 27.7143L14.1964 19.25L29.5714 24.0982C30 24.2321 30.4286 24.2857 30.8571 24.2857C31.2857 24.2857 31.7143 24.2321 32.1429 24.0982L47.5179 19.25ZM61.7143 10.5714C61.7143 10.9464 61.4732 11.2679 61.125 11.4018L31.125 20.8304C31.0179 20.8571 30.9375 20.8571 30.8571 20.8571C30.7768 20.8571 30.6964 20.8571 30.5893 20.8304L13.125 15.3125C11.5982 16.5179 10.5268 19.4643 10.3125 23.0804C11.3304 23.6696 12 24.7411 12 26C12 27.2054 11.3839 28.25 10.4464 28.8661L12 40.4643C12.0268 40.7054 11.9464 40.9464 11.7857 41.1339C11.625 41.3214 11.3839 41.4286 11.1429 41.4286H6C5.75893 41.4286 5.51786 41.3214 5.35714 41.1339C5.19643 40.9464 5.11607 40.7054 5.14286 40.4643L6.69643 28.8661C5.75893 28.25 5.14286 27.2054 5.14286 26C5.14286 24.7143 5.86607 23.6161 6.88393 23.0268C7.04464 19.8929 7.84821 16.5179 9.50893 14.1875L0.589286 11.4018C0.241071 11.2679 0 10.9464 0 10.5714C0 10.1964 0.241071 9.875 0.589286 9.74107L30.5893 0.312497C30.6964 0.285712 30.7768 0.285712 30.8571 0.285712C30.9375 0.285712 31.0179 0.285712 31.125 0.312497L61.125 9.74107C61.4732 9.875 61.7143 10.1964 61.7143 10.5714Z" fill="black"/>
</svg>
