<svg width="64" height="51" viewBox="0 0 64 51" fill="none" xmlns="http://www.w3.org/2000/svg">
<path d="M59.4286 44.8571V17.4286C58.6786 18.2857 57.8571 19.0714 56.9643 19.7857C51.8571 23.7143 46.7143 27.7143 41.75 31.8571C39.0714 34.1071 35.75 36.8571 32.0357 36.8571H32H31.9643C28.25 36.8571 24.9286 34.1071 22.25 31.8571C17.2857 27.7143 12.1429 23.7143 7.03571 19.7857C6.14286 19.0714 5.32143 18.2857 4.57143 17.4286V44.8571C4.57143 45.4643 5.10714 46 5.71429 46H58.2857C58.8929 46 59.4286 45.4643 59.4286 44.8571ZM59.4286 7.32143C59.4286 6.42857 59.6429 4.85714 58.2857 4.85714H5.71429C5.10714 4.85714 4.57143 5.39286 4.57143 6C4.57143 10.0714 6.60714 13.6071 9.82143 16.1429C14.6071 19.8929 19.3929 23.6786 24.1429 27.4643C26.0357 29 29.4643 32.2857 31.9643 32.2857H32H32.0357C34.5357 32.2857 37.9643 29 39.8571 27.4643C44.6071 23.6786 49.3929 19.8929 54.1786 16.1429C56.5 14.3214 59.4286 10.3571 59.4286 7.32143ZM64 6V44.8571C64 48 61.4286 50.5714 58.2857 50.5714H5.71429C2.57143 50.5714 0 48 0 44.8571V6C0 2.85714 2.57143 0.285713 5.71429 0.285713H58.2857C61.4286 0.285713 64 2.85714 64 6Z" fill="black"/>
</svg>
