<svg width="42" height="69" viewBox="0 0 42 69" fill="none" xmlns="http://www.w3.org/2000/svg">
<path d="M24.8571 62.1429C24.8571 59.7857 22.9286 57.8571 20.5714 57.8571C18.2143 57.8571 16.2857 59.7857 16.2857 62.1429C16.2857 64.5 18.2143 66.4286 20.5714 66.4286C22.9286 66.4286 24.8571 64.5 24.8571 62.1429ZM36 53.5714V15.8571C36 14.9464 35.1964 14.1429 34.2857 14.1429H6.85714C5.94643 14.1429 5.14286 14.9464 5.14286 15.8571V53.5714C5.14286 54.4821 5.94643 55.2857 6.85714 55.2857H34.2857C35.1964 55.2857 36 54.4821 36 53.5714ZM25.7143 8.14285C25.7143 7.66071 25.3393 7.28571 24.8571 7.28571H16.2857C15.8036 7.28571 15.4286 7.66071 15.4286 8.14285C15.4286 8.625 15.8036 9 16.2857 9H24.8571C25.3393 9 25.7143 8.625 25.7143 8.14285ZM41.1429 7.28571V62.1429C41.1429 65.8929 38.0357 69 34.2857 69H6.85714C3.10714 69 0 65.8929 0 62.1429V7.28571C0 3.53571 3.10714 0.42857 6.85714 0.42857H34.2857C38.0357 0.42857 41.1429 3.53571 41.1429 7.28571Z" fill="black"/>
</svg>
