<svg width="52" height="42" viewBox="0 0 52 42" fill="none" xmlns="http://www.w3.org/2000/svg">
<path d="M17.1429 12.2857C17.1429 15.125 14.8393 17.4286 12 17.4286C9.16071 17.4286 6.85714 15.125 6.85714 12.2857C6.85714 9.44643 9.16071 7.14285 12 7.14285C14.8393 7.14285 17.1429 9.44643 17.1429 12.2857ZM44.5714 22.5714V34.5714H6.85714V29.4286L15.4286 20.8571L19.7143 25.1429L33.4286 11.4286L44.5714 22.5714ZM47.1429 3.71428H4.28571C3.83036 3.71428 3.42857 4.11607 3.42857 4.57143V37.1429C3.42857 37.5982 3.83036 38 4.28571 38H47.1429C47.5982 38 48 37.5982 48 37.1429V4.57143C48 4.11607 47.5982 3.71428 47.1429 3.71428ZM51.4286 4.57143V37.1429C51.4286 39.5 49.5 41.4286 47.1429 41.4286H4.28571C1.92857 41.4286 0 39.5 0 37.1429V4.57143C0 2.21428 1.92857 0.285712 4.28571 0.285712H47.1429C49.5 0.285712 51.4286 2.21428 51.4286 4.57143Z" fill="black"/>
</svg>
