<svg width="54" height="42" viewBox="0 0 54 42" fill="none" xmlns="http://www.w3.org/2000/svg">
<path d="M19.5 21C16.125 21 13.5 18.375 13.5 15C13.5 11.7188 16.125 9 19.5 9C22.7812 9 25.5 11.7188 25.5 15C25.5 18.375 22.7812 21 19.5 21ZM43.5 18.75C44.7188 18.75 45.75 19.7812 45.75 21C45.75 22.3125 44.7188 23.25 43.5 23.25H34.5C33.1875 23.25 32.25 22.3125 32.25 21C32.25 19.7812 33.1875 18.75 34.5 18.75H43.5ZM22.5 24C26.625 24 30 27.375 30 31.5C30 32.3438 29.25 33 28.5 33H10.5C9.65625 33 9 32.3438 9 31.5C9 27.375 12.2812 24 16.5 24H22.5ZM43.5 11.25C44.7188 11.25 45.75 12.2812 45.75 13.5C45.75 14.8125 44.7188 15.75 43.5 15.75H34.5C33.1875 15.75 32.25 14.8125 32.25 13.5C32.25 12.2812 33.1875 11.25 34.5 11.25H43.5ZM48 0C51.2812 0 54 2.71875 54 6V36C54 39.375 51.2812 42 48 42H6C2.625 42 0 39.375 0 36V6C0 2.71875 2.625 0 6 0H48ZM49.5 36V6C49.5 5.25 48.75 4.5 48 4.5H6C5.15625 4.5 4.5 5.25 4.5 6V36C4.5 36.8438 5.15625 37.5 6 37.5H48C48.75 37.5 49.5 36.8438 49.5 36Z" fill="black"/>
</svg>
