<svg width="50" height="49" viewBox="0 0 50 49" fill="none" xmlns="http://www.w3.org/2000/svg">
<path d="M24.9062 0C25.8438 0 26.5938 0.5625 26.9688 1.3125L33.4375 14.5312L47.7812 16.6875C48.625 16.7812 49.2812 17.4375 49.5625 18.1875C49.8438 19.0312 49.6562 19.875 49 20.5312L38.5938 30.8438L41.0312 45.375C41.2188 46.2188 40.8438 47.1562 40.1875 47.625C39.4375 48.0938 38.5 48.1875 37.75 47.8125L24.9062 40.875L12.0625 47.8125C11.3125 48.1875 10.4688 48.0938 9.71875 47.625C9.0625 47.1562 8.6875 46.2188 8.78125 45.375L11.3125 30.8438L0.90625 20.5312C0.25 19.875 0.0625 19.0312 0.34375 18.1875C0.625 17.4375 1.28125 16.7812 2.125 16.6875L16.4688 14.5312L22.9375 1.3125C23.3125 0.5625 24.0625 0 24.9062 0ZM24.9062 7.40625L20.0312 17.625C19.6562 18.2812 19.0938 18.75 18.3438 18.8438L7.1875 20.4375L15.25 28.4062C15.8125 28.9688 16 29.7188 15.9062 30.4688L14.0312 41.625L23.875 36.375C24.5312 36 25.375 36 26.0312 36.375L35.875 41.625L34 30.4688C33.8125 29.7188 34.0938 28.9688 34.6562 28.4062L42.625 20.4375L31.5625 18.8438C30.8125 18.75 30.1562 18.2812 29.875 17.625L24.9062 7.40625Z" fill="black"/>
</svg>
