<svg width="64" height="65" viewBox="0 0 64 65" fill="none" xmlns="http://www.w3.org/2000/svg">
<path d="M42.4643 46.8214L47.7143 22.0714C48.1786 19.8929 46.9286 19.0357 45.5 19.5714L14.6429 31.4643C12.5357 32.2857 12.5714 33.4643 14.2857 34L22.1786 36.4643L40.5 24.9286C41.3571 24.3571 42.1429 24.6786 41.5 25.25L26.6786 38.6429L26.1071 46.7857C26.9286 46.7857 27.2857 46.4286 27.7143 46L31.5714 42.2857L39.5714 48.1786C41.0357 49 42.0714 48.5714 42.4643 46.8214ZM64 32.1429C64 49.8214 49.6786 64.1429 32 64.1429C14.3214 64.1429 0 49.8214 0 32.1429C0 14.4643 14.3214 0.142853 32 0.142853C49.6786 0.142853 64 14.4643 64 32.1429Z" fill="black"/>
</svg>
