<svg width="72" height="41" viewBox="0 0 72 41" fill="none" xmlns="http://www.w3.org/2000/svg">
<path d="M69.4643 3.71428C70 5.17857 68.3214 8.60714 64.1071 14.2143C57.1786 23.4286 56.4286 22.5714 62.1429 27.8929C67.6429 33 68.7857 35.4643 68.9643 35.7857C68.9643 35.7857 71.25 39.7857 66.4286 39.8214L57.2857 39.9643C55.3214 40.3571 52.7143 38.5714 52.7143 38.5714C49.2857 36.2143 46.0714 30.1071 43.5714 30.8929C43.5714 30.8929 41 31.7143 41.0714 37.2143C41.1071 38.3929 40.5357 39.0357 40.5357 39.0357C40.5357 39.0357 39.8929 39.7143 38.6429 39.8214H34.5357C25.5 40.3929 17.5357 32.0714 17.5357 32.0714C17.5357 32.0714 8.82143 23.0714 1.17857 5.10714C0.678571 3.92857 1.21429 3.35714 1.21429 3.35714C1.21429 3.35714 1.75 2.67857 3.25 2.67857L13.0357 2.60714C13.9643 2.75 14.6071 3.25 14.6071 3.25C14.6071 3.25 15.1786 3.64286 15.4643 4.39286C17.0714 8.39286 19.1429 12.0357 19.1429 12.0357C22.7143 19.3929 25.1429 20.6429 26.5357 19.8929C26.5357 19.8929 28.3571 18.7857 27.9643 9.89286C27.8214 6.67857 26.9286 5.21428 26.9286 5.21428C26.1071 4.10714 24.5714 3.78571 23.8929 3.67857C23.3571 3.60714 24.25 2.32143 25.4286 1.75C27.1786 0.892857 30.2857 0.85714 33.9643 0.892857C36.8571 0.92857 37.6786 1.10714 38.7857 1.35714C42.1786 2.17857 41.0357 5.32143 41.0357 12.8929C41.0357 15.3214 40.5714 18.7143 42.3214 19.8214C43.0714 20.3214 44.9286 19.8929 49.5 12.1071C49.5 12.1071 51.6429 8.39286 53.3214 4.07143C53.6071 3.28571 54.2143 2.96428 54.2143 2.96428C54.2143 2.96428 54.7857 2.64286 55.5714 2.75L65.8571 2.67857C68.9643 2.28571 69.4643 3.71428 69.4643 3.71428Z" fill="black"/>
</svg>
